<svg width="20" height="20" viewBox="0 0 20 20" fill="none" xmlns="http://www.w3.org/2000/svg">
<path d="M18.1244 9.9927C18.125 10.2154 18.066 10.4342 17.9537 10.6265C17.8413 10.8188 17.6796 10.9776 17.4853 11.0864L4.36738 18.5872C4.1789 18.6941 3.96607 18.7506 3.74941 18.7513C3.5496 18.7509 3.3528 18.7026 3.17551 18.6104C2.99822 18.5183 2.8456 18.385 2.73044 18.2217C2.61528 18.0584 2.54095 17.8699 2.51366 17.672C2.48638 17.474 2.50694 17.2725 2.57363 17.0841L4.71035 10.838C4.7314 10.7762 4.77128 10.7226 4.82439 10.6846C4.87749 10.6466 4.94115 10.6262 5.00644 10.6263H10.6244C10.7101 10.6265 10.7949 10.609 10.8736 10.5751C10.9522 10.5411 11.023 10.4913 11.0817 10.4288C11.1403 10.3663 11.1854 10.2925 11.2143 10.2118C11.2431 10.1311 11.2551 10.0454 11.2494 9.95988C11.2352 9.79917 11.1609 9.64974 11.0412 9.54152C10.9215 9.43331 10.7654 9.37429 10.6041 9.37629H5.01191C4.94672 9.37641 4.88313 9.35613 4.83003 9.31831C4.77694 9.28049 4.737 9.227 4.71581 9.16535L2.57206 2.91535C2.48858 2.67586 2.47993 2.41664 2.54725 2.17211C2.61457 1.92759 2.75468 1.70932 2.94898 1.54631C3.14327 1.38329 3.38256 1.28324 3.63507 1.25943C3.88757 1.23562 4.14135 1.28918 4.36269 1.41301L17.4877 8.90442C17.6807 9.01311 17.8414 9.17117 17.9533 9.36239C18.0652 9.55362 18.1242 9.77115 18.1244 9.9927Z" fill="#77C4FE"/>
</svg>
